<svg xmlns="http://www.w3.org/2000/svg" viewBox="0 0 6020 1000"><path d="M713.3,995.6H447.2V616.1H274.9V995.6H2.3V16.4H274.9V381.7H447.2V16.4H713.3V995.6Zm1220.3,4.4c272.6,0,495.1-226.8,495.1-502.7C2428.7,217,2206.2,0,1933.6,0c-275.9,0-415.5,200.7-449.3,282.4,0-121-121.1-266.1-261.7-266.1H767.9V995.6H1191c172.3,0,293.3-147.2,293.3-275.9,38.2,79.6,173.4,280.3,449.3,280.3ZM1157.2,602c39.2,0,70.9,38.2,70.9,81.8,0,45.8-31.6,84-70.9,84H1022V602Zm0-367.5c39.2,0,70.9,38.2,70.9,81.8s-31.6,81.8-70.9,81.8H1022V234.5ZM1336,497.3c31.6-2.2,82.9-38.2,102.5-60-7.6,26.2-7.6,109.1,0,135.2-21.8-31.6-70.9-69.8-102.5-75.2Zm349,0c0-137.9,112.1-249.5,250.2-248.6a248.05,248.05,0,0,1,247,252.3c-2,136.7-112.5,246-248.6,246C1796.2,747,1685,635.8,1685,497.3Zm248.6,196.3c105.8,0,195.2-87.2,195.2-196.3s-89.4-195.2-195.2-195.2c-109.1,0-196.3,86.2-196.3,195.2s87.2,196.3,196.3,196.3Z" style="fill:#fff;fill-rule:evenodd"/></svg>